/* XPM */
static char * tick_xpm[] = {
"16 16 2 1",
" 	c None",
".	c #00BA00",
"                ",
"                ",
"            ..  ",
"           .... ",
"          ......",
"         .......",
"  ..    ....... ",
" ....  .......  ",
".............   ",
"............    ",
" ..........     ",
"  ........      ",
"   ......       ",
"    ....        ",
"     ..         ",
"                "};
